# xmcd CD database file
#
# Track frame offsets:
#	150
#	19456
#	41188
#	60874
#	74664
#	98053
#	114318
#	131172
#	154387
#	171729
#	184766
#	207070
#	229767
#	256934
#	273257
#
# Disc length: 3950 seconds
#
# Revision: 0
# Processed by: cddbd v1.5.2PL0 Copyright (c) Steve Scherf et al.
# Submitted via: CDex 1.70beta2
#
DISCID=dc0f6c0f
DTITLE=Varios - Salsa, sentir cubano
DYEAR=2004
DGENRE=Salsa
TTITLE0=Carlos Santana-Oye como va
TTITLE1=Celia Cruz-Sazón
TTITLE2=Juan Luis Guerra-Woman del Callao
TTITLE3=La Lupe-Guantanamera
TTITLE4=Louie Ramirez-Feo pero sabroso
TTITLE5=Sierra Maestra-Tíbiri tábara
TTITLE6=Lou Bega-Mambo nº 5
TTITLE7=Orquesta Platería-Pedro Navaja
TTITLE8=Rubén Blades-'Tas caliente
TTITLE9=Compay Segundo-Sarandonga
TTITLE10=Gloria Estefan-Mi tierra
TTITLE11=Vieja Trova Santiaguera-Rico vacilón
TTITLE12=Rubén Blades-Ligia Elena
TTITLE13=Lucrecia-Ya llegó la pasión
TTITLE14=Lalo Rodríguez-Devórame otra vez
EXTD=YEAR: 2004
EXTT0=
EXTT1=
EXTT2=
EXTT3=
EXTT4=
EXTT5=
EXTT6=
EXTT7=
EXTT8=
EXTT9=
EXTT10=
EXTT11=
EXTT12=
EXTT13=
EXTT14=
PLAYORDER=
